<?xml version="1.0" encoding="UTF-8"?>
<svg version="1.1" xmlns="http://www.w3.org/2000/svg" width="96" height="96">
<path d="M0 0 C5.95931546 0.0941824 10.95655071 3.70393968 15.98828125 6.5703125 C17.01759766 7.14007813 18.04691406 7.70984375 19.10742188 8.296875 C36.96961372 18.23914497 36.96961372 18.23914497 39.17578125 20.4453125 C39.33564248 21.78189281 39.42976062 23.1264522 39.49560547 24.47094727 C39.53748993 25.32596329 39.57937439 26.18097931 39.62252808 27.06190491 C39.77303532 31.00068835 39.88021129 34.93940953 39.96533203 38.88012695 C40.02197898 40.95356716 40.10373896 43.02648379 40.21142578 45.09790039 C41.08577989 62.23277416 41.08577989 62.23277416 36.62182617 67.40380859 C33.22414346 69.51073035 29.89461834 70.98915662 26.17578125 72.4453125 C24.20108715 73.54972435 22.24264268 74.68388444 20.3046875 75.8515625 C18.45117386 76.88632238 16.59572459 77.91762331 14.73828125 78.9453125 C13.79791016 79.4815625 12.85753906 80.0178125 11.88867188 80.5703125 C2.91103228 85.53047419 2.91103228 85.53047419 -1.82421875 84.4453125 C-5.47745088 82.83385399 -8.92021355 80.92209956 -12.38671875 78.9453125 C-13.75666992 78.18734375 -13.75666992 78.18734375 -15.15429688 77.4140625 C-17.05091628 76.35523799 -18.92965985 75.26386042 -20.79077148 74.14379883 C-23.84324298 72.34619021 -23.84324298 72.34619021 -27.39086914 71.03393555 C-31.41405802 69.21968586 -33.89897783 67.7736824 -36.82421875 64.4453125 C-38.84539704 58.2965093 -38.48294772 51.70833184 -38.24438477 45.31762695 C-38.13651981 42.25215879 -38.14171333 39.2017904 -38.16210938 36.13476562 C-38.135557 34.1821899 -38.1025751 32.22968875 -38.0625 30.27734375 C-38.06300858 29.36580032 -38.06351715 28.4542569 -38.06404114 27.51509094 C-37.76618895 21.35927363 -37.76618895 21.35927363 -35.17951965 18.84951782 C-33.11505481 17.53770207 -31.0413843 16.47500146 -28.82421875 15.4453125 C-27.77242432 14.83913086 -26.72062988 14.23294922 -25.63696289 13.60839844 C-24.63785889 13.05442383 -23.63875488 12.50044922 -22.609375 11.9296875 C-21.51173828 11.31867187 -20.41410156 10.70765625 -19.28320312 10.078125 C-18.16236328 9.45679688 -17.04152344 8.83546875 -15.88671875 8.1953125 C-13.62676507 6.94161557 -11.36760436 5.68648773 -9.109375 4.4296875 C-8.1181665 3.88022461 -7.12695801 3.33076172 -6.10571289 2.76464844 C-1.82155104 0.28721552 -1.82155104 0.28721552 0 0 Z " fill="#455A64" transform="translate(46.82421875,5.5546875)"/>
<path d="M0 0 C5.36673186 2.74212577 11.29470197 6.5716059 13.25 12.4375 C11.67652824 13.473469 10.09078454 14.49081732 8.5 15.5 C7.61828125 16.06847656 6.7365625 16.63695313 5.828125 17.22265625 C3.25 18.4375 3.25 18.4375 1.09375 18.25 C-0.75 17.4375 -0.75 17.4375 -3.5 15.375 C-7.48275942 13.00066266 -10.22468727 12.54327653 -14.75 13.4375 C-19.11350222 15.66041622 -21.84544338 17.88772584 -23.75 22.4375 C-24.31872801 27.65084006 -23.6656441 31.06403385 -20.75 35.4375 C-16.86460969 38.87110074 -13.78550443 40.08840462 -8.70703125 39.8359375 C-5.48456456 39.17986644 -3.2903405 37.44614133 -0.75 35.4375 C0.24 34.7775 1.23 34.1175 2.25 33.4375 C5.88 35.4175 9.51 37.3975 13.25 39.4375 C10.52814065 46.24214838 6.52183204 49.48888006 0.0625 52.8125 C-6.90311394 55.63671826 -14.51418019 55.65728341 -21.5 52.875 C-29.35651806 48.7759471 -34.5518935 43.68193097 -37.90234375 35.40234375 C-40.05885966 27.85950698 -39.69419774 20.5337823 -36.07421875 13.53515625 C-28.2465326 1.13554722 -14.53412785 -5.92506257 0 0 Z " fill="#FBFBFB" transform="translate(58.75,21.5625)"/>
<path d="M0 0 C5.98209392 0.09304124 11.00975859 3.7534579 16.0546875 6.63671875 C17.61123047 7.50393555 17.61123047 7.50393555 19.19921875 8.38867188 C22.19990233 10.06307601 25.18983403 11.75557676 28.1796875 13.44921875 C31.17662599 15.12142356 34.1774556 16.7865392 37.1796875 18.44921875 C36.42480469 22.26367187 36.42480469 22.26367187 34.21875 23.93359375 C33.42210938 24.35125 32.62546875 24.76890625 31.8046875 25.19921875 C31.01320313 25.6271875 30.22171875 26.05515625 29.40625 26.49609375 C27.1796875 27.44921875 27.1796875 27.44921875 24.1796875 27.44921875 C22.85546875 26.05859375 22.85546875 26.05859375 21.4921875 24.19921875 C17.59215586 19.38267968 12.9556519 17.37454022 7.1796875 15.44921875 C-2.66627947 14.54741096 -9.81397772 16.13630873 -17.6328125 22.19921875 C-22.31912374 26.47235174 -25.53411728 32.73418463 -26.0234375 39.0859375 C-26.12430331 45.65062067 -25.57736534 50.47560427 -22.8203125 56.44921875 C-24.5867782 57.45691395 -26.35865073 58.45513589 -28.1328125 59.44921875 C-29.11894531 60.00609375 -30.10507812 60.56296875 -31.12109375 61.13671875 C-33.8203125 62.44921875 -33.8203125 62.44921875 -36.8203125 62.44921875 C-37.01832377 56.55952573 -37.16335339 50.67177471 -37.25976562 44.77954102 C-37.29995749 42.77626803 -37.35452355 40.77322915 -37.42382812 38.77075195 C-37.52107956 35.88824797 -37.56627783 33.00884692 -37.6015625 30.125 C-37.64285278 29.2321077 -37.68414307 28.33921539 -37.72668457 27.41926575 C-37.72851928 24.86723291 -37.63109802 22.8711703 -36.8203125 20.44921875 C-34.45079713 18.12219797 -31.81238774 16.8360363 -28.8203125 15.44921875 C-27.76851807 14.84303711 -26.71672363 14.23685547 -25.63305664 13.61230469 C-24.63395264 13.05833008 -23.63484863 12.50435547 -22.60546875 11.93359375 C-21.50783203 11.32257812 -20.41019531 10.7115625 -19.27929688 10.08203125 C-18.15845703 9.46070313 -17.03761719 8.839375 -15.8828125 8.19921875 C-13.62285882 6.94552182 -11.36369811 5.69039398 -9.10546875 4.43359375 C-8.11426025 3.88413086 -7.12305176 3.33466797 -6.10180664 2.76855469 C-1.81380775 0.2889029 -1.81380775 0.2889029 0 0 Z " fill="#546D79" transform="translate(46.8203125,5.55078125)"/>
<path d="M0 0 C1.32421875 1.48828125 1.32421875 1.48828125 2.6875 3.3125 C6.89545573 8.4356861 12.8932926 11.492285 19.49609375 12.30859375 C27.91950339 12.67774716 34.0193597 10.74642356 41 6 C43.36718385 3.77910279 45.09230335 1.64957868 47 -1 C51.97209562 0.76429199 56.43438061 3.3939166 61 6 C58.25729546 8.94976075 55.66174626 10.94680936 52.11328125 12.83984375 C51.17419922 13.34580078 50.23511719 13.85175781 49.26757812 14.37304688 C47.80481445 15.14745117 47.80481445 15.14745117 46.3125 15.9375 C44.39177058 16.96715603 42.47119594 17.99710083 40.55078125 19.02734375 C39.61572754 19.52218262 38.68067383 20.01702148 37.71728516 20.52685547 C35.95803222 21.48061398 34.21619317 22.46753122 32.49755859 23.49267578 C24.86969415 28.03166282 24.86969415 28.03166282 20 27 C16.34412036 25.39471614 12.90293347 23.47831024 9.4375 21.5 C8.46474121 20.95553223 7.49198242 20.41106445 6.48974609 19.85009766 C3.64941392 18.25084766 0.82217307 16.63104624 -2 15 C-3.13429443 14.34596191 -3.13429443 14.34596191 -4.29150391 13.67871094 C-12.07231618 9.15433338 -12.07231618 9.15433338 -15 7 C-15 6.34 -15 5.68 -15 5 C-13.06891037 3.96709159 -11.129882 2.94901328 -9.1875 1.9375 C-8.10855469 1.36902344 -7.02960937 0.80054688 -5.91796875 0.21484375 C-3 -1 -3 -1 0 0 Z " fill="#37474F" transform="translate(25,63)"/>
<path d="M0 0 C3.54271234 1.93846524 6.20183243 4.13618627 9 7 C8.14535156 7.40992188 7.29070313 7.81984375 6.41015625 8.2421875 C5.30542969 8.78101563 4.20070313 9.31984375 3.0625 9.875 C1.96035156 10.40867187 0.85820313 10.94234375 -0.27734375 11.4921875 C-3.09404511 12.71659845 -3.09404511 12.71659845 -4 15 C-2.6696875 15.4021875 -2.6696875 15.4021875 -1.3125 15.8125 C1.76877548 16.91710819 4.26221405 18.22849144 7 20 C6.76793596 23.24889654 5.93662944 24.05564244 3.4375 26.25 C-0.64496417 28.32834539 -3.51295367 28.89561803 -8 28 C-13.10209922 25.30455136 -16.17381037 22.4785689 -18 17 C-18.38981277 12.8679846 -18.27518905 10.53979391 -16.375 6.8125 C-11.717449 1.29697908 -7.20232131 -1.45196497 0 0 Z " fill="#57707C" transform="translate(52,34)"/>
<path d="M0 0 C0.928125 0.53625 1.85625 1.0725 2.8125 1.625 C3.44542969 1.97046875 4.07835938 2.3159375 4.73046875 2.671875 C6.44654458 3.61725809 8.13245592 4.61697355 9.8125 5.625 C9.58043596 8.87389654 8.74912944 9.68064244 6.25 11.875 C2.16632372 13.95396247 -0.69957919 14.51900813 -5.1875 13.625 C-9.31659332 11.48398865 -11.30695033 9.80790487 -13.1875 5.625 C-4.40627667 -0.51838549 -4.40627667 -0.51838549 0 0 Z " fill="#3A4A52" transform="translate(49.1875,48.375)"/>
<path d="M0 0 C0.66 0 1.32 0 2 0 C2 1.32 2 2.64 2 4 C3.32 4 4.64 4 6 4 C6 2.68 6 1.36 6 0 C6.66 0 7.32 0 8 0 C8 1.32 8 2.64 8 4 C9.32 4 10.64 4 12 4 C12 4.66 12 5.32 12 6 C10.68 6 9.36 6 8 6 C8 7.32 8 8.64 8 10 C9.32 10 10.64 10 12 10 C12 10.66 12 11.32 12 12 C10.68 12 9.36 12 8 12 C8 13.32 8 14.64 8 16 C7.34 16 6.68 16 6 16 C6 14.68 6 13.36 6 12 C4.68 12 3.36 12 2 12 C2 13.32 2 14.64 2 16 C1.34 16 0.68 16 0 16 C0 14.68 0 13.36 0 12 C-1.32 12 -2.64 12 -4 12 C-4 11.34 -4 10.68 -4 10 C-2.68 10 -1.36 10 0 10 C0 8.68 0 7.36 0 6 C-1.32 6 -2.64 6 -4 6 C-4 5.34 -4 4.68 -4 4 C-2.68 4 -1.36 4 0 4 C0 2.68 0 1.36 0 0 Z " fill="#E7EAEB" transform="translate(68,40)"/>
</svg>
