<?xml version="1.0" encoding="UTF-8"?>
<svg version="1.1" xmlns="http://www.w3.org/2000/svg" width="100" height="100">
<path d="M0 0 C0.91517395 -0.00807175 1.8303479 -0.01614349 2.77325439 -0.02445984 C4.7134003 -0.03830504 6.65357061 -0.04902524 8.59375 -0.05688477 C11.55255748 -0.07407025 14.51023967 -0.11794882 17.46875 -0.16210938 C19.35415845 -0.17223876 21.23957641 -0.1807541 23.125 -0.1875 C24.00645691 -0.20500809 24.88791382 -0.22251617 25.79608154 -0.24055481 C31.31606657 -0.22119053 34.45282329 0.5536173 38.828125 4.23828125 C43.66022929 9.72337261 44.17365447 13.04361884 44.11328125 20.25390625 C43.55849792 26.06013176 39.9294338 29.42992308 35.828125 33.23828125 C36.59125 33.79515625 37.354375 34.35203125 38.140625 34.92578125 C41.65996969 37.95405458 43.5668739 40.4895464 44.26171875 45.140625 C44.27512493 55.55722869 44.27512493 55.55722869 39.828125 60.23828125 C35.22154215 64.61453496 30.9894561 64.73137397 24.92578125 64.8671875 C20.6180366 63.99260126 18.26439281 61.95202967 14.828125 59.23828125 C14.8187793 59.9338916 14.80943359 60.62950195 14.79980469 61.34619141 C14.74588954 64.51925625 14.66228327 67.69088035 14.578125 70.86328125 C14.56394531 71.95769531 14.54976562 73.05210938 14.53515625 74.1796875 C14.34473414 80.46361719 14.07826028 84.4784434 9.828125 89.23828125 C4.34421024 94.06934902 1.02273101 94.58852868 -6.1875 94.51953125 C-11.51289575 94.01766149 -14.0740795 91.48442749 -17.484375 87.61328125 C-21.11437362 82.5043943 -20.77261714 77.35784116 -20.171875 71.23828125 C-18.296875 67.73828125 -18.296875 67.73828125 -16.171875 65.23828125 C-15.47758121 63.91912305 -14.79657005 62.59178719 -14.171875 61.23828125 C-14.97625 60.28953125 -15.780625 59.34078125 -16.609375 58.36328125 C-20.52724136 53.7422081 -20.50075262 50.22661956 -20.46484375 44.22265625 C-20.08201355 40.32289265 -18.68514793 38.19507293 -16.171875 35.23828125 C-15.47758121 33.91912305 -14.79657005 32.59178719 -14.171875 31.23828125 C-14.97625 30.28953125 -15.780625 29.34078125 -16.609375 28.36328125 C-20.52610355 23.74355014 -20.510587 20.22743484 -20.453125 14.22265625 C-19.95125524 8.8972605 -17.41802124 6.33607675 -13.546875 2.92578125 C-9.11308202 -0.22454534 -5.29119294 0.04393853 0 0 Z M-11.984375 8.80078125 C-12.70625 9.60515625 -13.428125 10.40953125 -14.171875 11.23828125 C-14.501875 11.56828125 -14.831875 11.89828125 -15.171875 12.23828125 C-15.71928245 17.08418325 -15.91799356 21.00332639 -13.359375 25.23828125 C-6.26105887 31.72817029 0.00507224 30.23828125 9.828125 30.23828125 C9.828125 21.65828125 9.828125 13.07828125 9.828125 4.23828125 C-2.28014046 3.48477412 -2.28014046 3.48477412 -11.984375 8.80078125 Z M13.828125 4.23828125 C13.828125 12.81828125 13.828125 21.39828125 13.828125 30.23828125 C25.93639046 30.99178838 25.93639046 30.99178838 35.640625 25.67578125 C36.7234375 24.46921875 36.7234375 24.46921875 37.828125 23.23828125 C38.158125 22.90828125 38.488125 22.57828125 38.828125 22.23828125 C39.37553245 17.39237925 39.57424356 13.47323611 37.015625 9.23828125 C29.91730887 2.74839221 23.65117776 4.23828125 13.828125 4.23828125 Z M-11.984375 38.80078125 C-12.70625 39.60515625 -13.428125 40.40953125 -14.171875 41.23828125 C-14.501875 41.56828125 -14.831875 41.89828125 -15.171875 42.23828125 C-15.71928245 47.08418325 -15.91799356 51.00332639 -13.359375 55.23828125 C-6.26105887 61.72817029 0.00507224 60.23828125 9.828125 60.23828125 C9.828125 51.65828125 9.828125 43.07828125 9.828125 34.23828125 C-2.28014046 33.48477412 -2.28014046 33.48477412 -11.984375 38.80078125 Z M13.828125 34.23828125 C13.828125 35.88828125 13.828125 37.53828125 13.828125 39.23828125 C15.478125 37.58828125 17.128125 35.93828125 18.828125 34.23828125 C17.178125 34.23828125 15.528125 34.23828125 13.828125 34.23828125 Z M17.828125 42.23828125 C16.21382577 45.46687972 16.23241843 48.74821778 16.828125 52.23828125 C18.56414605 55.2633627 20.66392637 57.65618194 23.828125 59.23828125 C28.95182898 59.8455697 28.95182898 59.8455697 33.65234375 58.19140625 C37.45565244 55.0603531 38.71475867 53.37194457 39.203125 48.48828125 C39.17871275 45.13770057 38.58413854 43.38933593 36.453125 40.80078125 C32.9232664 37.3549669 30.8997598 36.84272289 25.93359375 36.87890625 C22.21219047 37.51409939 20.42499651 39.57807141 17.828125 42.23828125 Z M-14.171875 71.23828125 C-14.501875 71.56828125 -14.831875 71.89828125 -15.171875 72.23828125 C-15.71928245 77.08418325 -15.91799356 81.00332639 -13.359375 85.23828125 C-9.00462789 89.21976432 -6.31258998 89.67043037 -0.6171875 89.5625 C2.82608732 89.10596356 4.51352518 87.7698748 6.828125 85.23828125 C10.03575054 80.42684294 9.948083 76.11412373 9.890625 70.42578125 C9.88160156 69.26433594 9.87257813 68.10289063 9.86328125 66.90625 C9.85167969 66.02582031 9.84007813 65.14539063 9.828125 64.23828125 C7.78676105 64.18376411 5.74496644 64.1452564 3.703125 64.11328125 C2.56617187 64.09007812 1.42921875 64.066875 0.2578125 64.04296875 C-6.35223536 64.41939517 -9.78225432 66.34698964 -14.171875 71.23828125 Z " fill="#000000" transform="translate(40.171875,3.76171875)"/>
</svg>
