<?xml version="1.0" encoding="UTF-8"?>
<svg version="1.1" xmlns="http://www.w3.org/2000/svg" width="100" height="100">
<path d="M0 0 C2.56842714 0.77905893 3.88329406 1.90119521 5.86317444 3.70549011 C6.56056732 4.33973907 7.25796021 4.97398804 7.97648621 5.62745667 C11.39891621 8.85484491 14.75452192 12.1411121 18.07582092 15.47233582 C18.79459915 16.19015732 19.51337738 16.90797882 20.25393677 17.64755249 C21.75674647 19.14968709 23.25831584 20.65306354 24.75868225 22.15763855 C27.06312477 24.46748652 29.37292106 26.77188547 31.6832428 29.07585144 C33.14775667 30.54102529 34.61196075 32.00650886 36.07582092 33.47233582 C36.76739792 34.16188858 37.45897491 34.85144135 38.17150879 35.56188965 C38.80629654 36.19982956 39.44108429 36.83776947 40.09510803 37.49504089 C40.65499924 38.05572769 41.21489044 38.61641449 41.79174805 39.1940918 C44.3305262 41.97724244 44.63131953 44.71829947 44.58233643 48.44338989 C43.99417998 51.18467377 42.96537844 52.36544898 41.06922913 54.41593933 C40.43159637 55.10994843 39.79396362 55.80395752 39.13700867 56.51899719 C35.88848955 59.92028072 32.60973241 63.28428525 29.27894592 66.60514832 C28.56112442 67.32392654 27.84330292 68.04270477 27.10372925 68.78326416 C25.60159465 70.28607386 24.0982182 71.78764323 22.59364319 73.28800964 C20.28379522 75.59245216 17.97939626 77.90224846 15.6754303 80.21257019 C14.21025645 81.67708406 12.74477288 83.14128815 11.27894592 84.60514832 C10.58939316 85.29672531 9.89984039 85.98830231 9.18939209 86.70083618 C8.55145218 87.33562393 7.91351227 87.97041168 7.25624084 88.62443542 C6.69555405 89.18432663 6.13486725 89.74421783 5.55718994 90.32107544 C2.7740393 92.8598536 0.03298227 93.16064692 -3.69210815 93.11166382 C-6.43339203 92.52350738 -7.61416725 91.49470584 -9.66465759 89.59855652 C-10.35866669 88.96092377 -11.05267578 88.32329102 -11.76771545 87.66633606 C-15.16899898 84.41781695 -18.53300351 81.1390598 -21.85386658 77.80827332 C-22.57264481 77.09045181 -23.29142303 76.37263031 -24.03198242 75.63305664 C-25.53479212 74.13092204 -27.03636149 72.6275456 -28.53672791 71.12297058 C-30.84117042 68.81312261 -33.15096672 66.50872366 -35.46128845 64.20475769 C-36.92580232 62.73958385 -38.39000641 61.27410027 -39.85386658 59.80827332 C-40.54544357 59.11872055 -41.23702057 58.42916779 -41.94955444 57.71871948 C-42.58434219 57.08077957 -43.21912994 56.44283966 -43.87315369 55.78556824 C-44.43304489 55.22488144 -44.9929361 54.66419464 -45.5697937 54.08651733 C-48.11165838 51.29998307 -48.41901663 48.55407257 -48.34629822 44.82341003 C-47.78984597 42.16681846 -46.90352832 41.07667562 -45.07261658 39.08561707 C-44.43759216 38.39419617 -43.80256775 37.70277527 -43.14830017 36.99040222 C-38.64685178 32.30800086 -34.06373766 27.71299678 -29.45152283 23.14030457 C-28.42329302 22.11710318 -27.39529657 21.09366724 -26.36753845 20.06999207 C-23.87737944 17.59072457 -21.3840945 15.11462919 -18.88902283 12.64030457 C-14.35063051 14.83641493 -10.81114099 17.46468725 -7.88902283 21.64030457 C-7.58042908 23.73796082 -7.58042908 23.73796082 -7.70152283 25.82780457 C-7.79433533 27.71499207 -7.79433533 27.71499207 -7.88902283 29.64030457 C-7.24384705 30.25647644 -6.59867126 30.87264832 -5.9339447 31.50749207 C-3.26832223 34.28768284 -3.37421541 35.77721823 -3.35777283 39.57780457 C-3.35003845 41.29096863 -3.35003845 41.29096863 -3.34214783 43.03874207 C-3.35761658 44.22725769 -3.37308533 45.41577332 -3.38902283 46.64030457 C-3.37355408 47.82882019 -3.35808533 49.01733582 -3.34214783 50.24186707 C-3.34730408 51.38397644 -3.35246033 52.52608582 -3.35777283 53.70280457 C-3.36228455 54.74565613 -3.36679626 55.78850769 -3.3714447 56.86296082 C-4.01201637 60.30029257 -5.35675429 61.32877247 -7.88902283 63.64030457 C-8.34644559 66.84226393 -8.44370327 68.71583715 -6.76402283 71.51530457 C-4.00811398 73.16884987 -2.0382683 73.03396025 1.11097717 72.64030457 C3.11097717 71.64030457 3.11097717 71.64030457 4.11097717 69.64030457 C4.69443193 66.68283964 4.69443193 66.68283964 4.11097717 63.64030457 C3.45001038 63.04250183 2.78904358 62.4446991 2.10804749 61.82878113 C-0.51737177 58.95173245 -0.35502546 57.40643896 -0.27964783 53.56217957 C-0.2667572 52.40202332 -0.25386658 51.24186707 -0.24058533 50.04655457 C-0.2070697 48.83999207 -0.17355408 47.63342957 -0.13902283 46.39030457 C-0.12097595 45.16827332 -0.10292908 43.94624207 -0.08433533 42.68717957 C-0.03720383 39.67076378 0.02858304 36.65592965 0.11097717 33.64030457 C4.68982404 33.64030457 5.20370681 34.09997014 8.36097717 37.14030457 C11.97012507 40.88238608 11.97012507 40.88238608 12.52113342 43.84733582 C12.43144211 45.78108044 12.27444407 47.71139519 12.11097717 49.64030457 C13.07215622 51.76901149 13.07215622 51.76901149 15.11097717 52.64030457 C18.26022265 53.03396025 20.23006833 53.16884987 22.98597717 51.51530457 C24.63952248 48.75939572 24.50463286 46.78955004 24.11097717 43.64030457 C23.2396841 41.60148361 23.2396841 41.60148361 21.11097717 40.64030457 C19.91472717 40.76405457 18.71847717 40.88780457 17.48597717 41.01530457 C14.37061892 41.1426984 13.21756323 40.71257189 10.58753967 38.92936707 C4.43604388 33.24359966 4.43604388 33.24359966 3.65003967 29.36686707 C3.72828397 27.45343844 3.91392244 25.54516695 4.11097717 23.64030457 C3.27764384 21.4736379 3.27764384 21.4736379 1.11097717 20.64030457 C-0.08527283 20.76405457 -1.28152283 20.88780457 -2.51402283 21.01530457 C-5.80603031 21.19887376 -6.76087938 20.74147044 -9.41246033 18.64811707 C-11.65732493 16.3749261 -13.81013556 14.06567304 -15.88902283 11.64030457 C-13.16286733 5.41695969 -7.31504931 -0.90883427 0 0 Z M-6.13902283 7.64030457 C-7.00527283 8.63030457 -7.00527283 8.63030457 -7.88902283 9.64030457 C-6.66894339 12.33085737 -6.66894339 12.33085737 -4.88902283 14.64030457 C-3.28781949 14.90863008 -1.68292642 15.15510638 -0.07652283 15.39030457 C3.40306099 16.07627966 4.89233391 16.45899064 7.67347717 18.76530457 C9.01686289 21.45207599 9.31980335 22.75465874 9.54847717 25.64030457 C9.83714034 28.82762702 10.15636055 29.70764764 12.04847717 32.51530457 C15.12641645 34.65101753 16.58681601 35.05839789 20.17347717 35.64030457 C23.56717604 36.20676399 24.93544339 36.50656454 27.73597717 38.64030457 C29.73495422 43.00170904 29.90085479 46.92427057 29.11097717 51.64030457 C27.31450863 54.57453652 26.16687007 56.11235812 23.11097717 57.64030457 C18.44698 58.14385116 14.41350982 58.2372987 10.11097717 56.26530457 C7.54114244 52.89239648 7.12109069 49.93599175 6.56800842 45.78483582 C6.41718811 45.0771405 6.2663678 44.36944519 6.11097717 43.64030457 C5.12097717 43.14530457 5.12097717 43.14530457 4.11097717 42.64030457 C3.23240702 50.33188846 3.23240702 50.33188846 5.22425842 57.48796082 C5.68187561 57.93010925 6.1394928 58.37225769 6.61097717 58.82780457 C9.81427816 62.43151818 9.77738837 64.61198528 9.54457092 69.29655457 C8.93273125 72.60379606 7.57001046 74.39824481 5.11097717 76.64030457 C1.41372342 78.48893144 -2.85363724 78.11617551 -6.88902283 77.64030457 C-9.82325478 75.84383602 -11.36107638 74.69619746 -12.88902283 71.64030457 C-13.16246033 69.46842957 -13.16246033 69.46842957 -13.26402283 66.89030457 C-13.3130072 66.04983582 -13.36199158 65.20936707 -13.41246033 64.34342957 C-12.78075705 61.0812007 -11.20557235 59.76256812 -9.0330658 57.35417175 C-6.83955737 54.068122 -7.16927792 50.46799879 -7.26402283 46.64030457 C-7.24468689 45.85913269 -7.22535095 45.07796082 -7.20542908 44.27311707 C-7.25594467 38.2718643 -8.86499263 35.98499967 -12.88902283 31.64030457 C-13.49058533 29.40983582 -13.49058533 29.40983582 -13.51402283 27.45280457 C-13.53735117 23.72247749 -13.53735117 23.72247749 -15.45152283 21.64030457 C-15.92589783 21.31030457 -16.40027283 20.98030457 -16.88902283 20.64030457 C-22.47756978 22.97246859 -26.41766421 27.72074277 -30.64512634 31.91593933 C-32.2002618 33.45155936 -33.77540779 34.9645631 -35.35191345 36.47819519 C-36.34085346 37.45408319 -37.32852899 38.43125461 -38.31480408 39.40983582 C-39.66699036 40.73398499 -39.66699036 40.73398499 -41.04649353 42.08488464 C-43.15989077 44.44238626 -43.15989077 44.44238626 -42.72433472 47.04553223 C-41.75300541 50.06282248 -40.58457716 51.46299391 -38.36656189 53.71208191 C-37.6219873 54.47572052 -36.87741272 55.23935913 -36.11027527 56.02613831 C-34.89473969 57.23893967 -34.89473969 57.23893967 -33.65464783 58.47624207 C-32.82447144 59.31498871 -31.99429504 60.15373535 -31.13896179 61.01789856 C-29.38205117 62.78628889 -27.61988324 64.54946929 -25.85289001 66.30778503 C-23.14562178 69.00872104 -20.46609716 71.73522553 -17.78746033 74.46452332 C-16.0781455 76.17838281 -14.36725986 77.89067738 -12.65464783 79.60124207 C-11.8523877 80.42192169 -11.05012756 81.24260132 -10.22355652 82.08815002 C-9.46637329 82.83287567 -8.70919006 83.57760132 -7.92906189 84.34489441 C-6.93764191 85.33820267 -6.93764191 85.33820267 -5.92619324 86.35157776 C-3.93861191 87.87485839 -3.93861191 87.87485839 -1.39100647 87.56642151 C1.49495972 86.49817224 2.99557131 85.27480937 5.18275452 83.11784363 C5.94639313 82.37326904 6.71003174 81.62869446 7.49681091 80.86155701 C8.30534515 80.05119995 9.11387939 79.2408429 9.94691467 78.40592957 C10.78566132 77.57575317 11.62440796 76.74557678 12.48857117 75.89024353 C14.2569615 74.13333291 16.0201419 72.37116498 17.77845764 70.60417175 C20.47939365 67.89690352 23.20589813 65.21737889 25.93519592 62.53874207 C27.64905541 60.82942724 29.36134998 59.1185416 31.07191467 57.40592957 C31.8925943 56.60366943 32.71327393 55.8014093 33.55882263 54.97483826 C34.30354828 54.21765503 35.04827393 53.4604718 35.81556702 52.68034363 C36.80887527 51.68892365 36.80887527 51.68892365 37.82225037 50.67747498 C39.34545278 48.68976293 39.34545278 48.68976293 39.03808594 46.14129639 C37.96677832 43.25131014 36.74282668 41.76502771 34.57264709 39.58439636 C33.82484482 38.82398544 33.07704254 38.06357452 32.30657959 37.28012085 C31.49308548 36.47472366 30.67959137 35.66932648 29.84144592 34.83952332 C29.00889786 34.00314835 28.17634979 33.16677338 27.318573 32.30505371 C25.55727048 30.54103067 23.79091226 28.78204319 22.01991272 27.02775574 C19.30527508 24.3345488 16.61263794 21.62066612 13.92152405 18.90397644 C12.20861268 17.19370779 10.49446117 15.48468009 8.77894592 13.77702332 C7.5678138 12.5537458 7.5678138 12.5537458 6.33221436 11.30575562 C5.19632622 10.18878044 5.19632622 10.18878044 4.03749084 9.04924011 C3.37432358 8.38925522 2.71115631 7.72927032 2.02789307 7.04928589 C-1.19914665 4.67733065 -3.24246294 5.06558467 -6.13902283 7.64030457 Z " fill="#000000" transform="translate(51.88902282714844,3.3596954345703125)"/>
</svg>
