<svg fill="#000000" width="100px" height="100px" viewBox="0 0 3 3" xmlns="http://www.w3.org/2000/svg" data-name="Layer 1"><path d="M1.5 0.281a1.25 1.25 0 0 0 -0.395 2.436c0.063 0.011 0.086 -0.026 0.086 -0.059 0 -0.03 -0.002 -0.128 -0.002 -0.233 -0.314 0.058 -0.395 -0.077 -0.42 -0.147a0.455 0.455 0 0 0 -0.128 -0.177c-0.044 -0.023 -0.106 -0.081 -0.002 -0.083a0.25 0.25 0 0 1 0.192 0.128 0.267 0.267 0 0 0 0.364 0.103 0.263 0.263 0 0 1 0.08 -0.167c-0.278 -0.031 -0.569 -0.139 -0.569 -0.617a0.487 0.487 0 0 1 0.128 -0.336 0.45 0.45 0 0 1 0.013 -0.331s0.105 -0.033 0.344 0.128a1.179 1.179 0 0 1 0.625 0c0.239 -0.163 0.344 -0.128 0.344 -0.128a0.45 0.45 0 0 1 0.013 0.331 0.484 0.484 0 0 1 0.128 0.336c0 0.48 -0.292 0.586 -0.57 0.617a0.296 0.296 0 0 1 0.084 0.231c0 0.167 -0.002 0.302 -0.002 0.344 0 0.033 0.023 0.072 0.086 0.059A1.251 1.251 0 0 0 1.5 0.281"/></svg>