<?xml version="1.0" encoding="UTF-8"?>
<svg version="1.1" xmlns="http://www.w3.org/2000/svg" width="100" height="100">
<path d="M0 0 C1.10658966 0.00607269 1.10658966 0.00607269 2.23553467 0.01226807 C3.01289978 0.00876343 3.79026489 0.00525879 4.59118652 0.00164795 C7.16803849 -0.00717493 9.74461727 -0.00131833 12.32147217 0.00543213 C14.10744276 0.00408564 15.89341299 0.00214524 17.67938232 -0.00036621 C21.42534876 -0.00331823 25.17121992 0.00098264 28.91717529 0.01031494 C33.7261005 0.02170953 38.53480248 0.01515047 43.34371948 0.00317001 C47.03250825 -0.00404651 50.72124383 -0.00176162 54.41003418 0.0034256 C56.18351264 0.00476267 57.95699587 0.00311237 59.73046875 -0.00153351 C62.20624642 -0.00659536 64.68165927 0.0011065 67.15740967 0.01226807 C67.89513611 0.0082196 68.63286255 0.00417114 69.39294434 0 C74.46794339 0.04252835 74.46794339 0.04252835 76.69647217 2.27105713 C76.89478733 4.81993837 76.96925479 7.26015933 76.95526123 9.81011963 C76.95876587 10.58748474 76.96227051 11.36484985 76.96588135 12.16577148 C76.97470423 14.74262345 76.96884762 17.31920223 76.96209717 19.89605713 C76.96344366 21.68202772 76.96538406 23.46799795 76.96789551 25.25396729 C76.97084752 28.99993372 76.96654666 32.74580488 76.95721436 36.49176025 C76.94581976 41.30068546 76.95237882 46.10938744 76.96435928 50.91830444 C76.97157581 54.60709321 76.96929092 58.2958288 76.9641037 61.98461914 C76.96276662 63.7580976 76.96441693 65.53158084 76.96906281 67.30505371 C76.97412466 69.78083138 76.96642279 72.25624423 76.95526123 74.73199463 C76.95930969 75.46972107 76.96335815 76.20744751 76.9675293 76.9675293 C76.92500095 82.04252835 76.92500095 82.04252835 74.69647217 84.27105713 C72.14759092 84.46937229 69.70736996 84.54383975 67.15740967 84.52984619 C66.38004456 84.53335083 65.60267944 84.53685547 64.80175781 84.54046631 C62.22490585 84.54928919 59.64832707 84.54343258 57.07147217 84.53668213 C55.28550158 84.53802862 53.49953134 84.53996902 51.71356201 84.54248047 C47.96759558 84.54543248 44.22172442 84.54113162 40.47576904 84.53179932 C35.66684384 84.52040472 30.85814186 84.52696378 26.04922485 84.53894424 C22.36043608 84.54616077 18.6717005 84.54387588 14.98291016 84.53868866 C13.2094317 84.53735159 11.43594846 84.53900189 9.66247559 84.54364777 C7.18669791 84.54870962 4.71128507 84.54100776 2.23553467 84.52984619 C1.49780823 84.53389465 0.76008179 84.53794312 0 84.54211426 C-5.07499905 84.49958591 -5.07499905 84.49958591 -7.30352783 82.27105713 C-7.50184299 79.72217589 -7.57631045 77.28195492 -7.56231689 74.73199463 C-7.56582153 73.95462952 -7.56932617 73.1772644 -7.57293701 72.37634277 C-7.58175989 69.79949081 -7.57590329 67.22291203 -7.56915283 64.64605713 C-7.57049932 62.86008654 -7.57243972 61.0741163 -7.57495117 59.28814697 C-7.57790319 55.54218054 -7.57360232 51.79630938 -7.56427002 48.050354 C-7.55287543 43.2414288 -7.55943449 38.43272682 -7.57141495 33.62380981 C-7.57863147 29.93502104 -7.57634658 26.24628546 -7.57115936 22.55749512 C-7.56982229 20.78401666 -7.57147259 19.01053342 -7.57611847 17.23706055 C-7.58118032 14.76128288 -7.57347846 12.28587003 -7.56231689 9.81011963 C-7.56636536 9.07239319 -7.57041382 8.33466675 -7.57458496 7.57458496 C-7.52186101 1.28292347 -6.29166149 0.05272395 0 0 Z M-3.30352783 6.27105713 C-3.61163698 9.3746485 -3.61163698 9.3746485 -3.56231689 13.07574463 C-3.56582153 13.77508118 -3.56932617 14.47441772 -3.57293701 15.19494629 C-3.58175659 17.51208351 -3.57590453 19.82891668 -3.56915283 22.14605713 C-3.57049942 23.7526658 -3.5724399 25.35927407 -3.57495117 26.96588135 C-3.57790274 30.33522415 -3.5736038 33.704461 -3.56427002 37.0737915 C-3.55287541 41.39845207 -3.55943472 45.72286442 -3.57141495 50.04751587 C-3.57863271 53.36572143 -3.57634602 56.68386788 -3.57115936 60.0020752 C-3.56982263 61.59692412 -3.57147141 63.19177837 -3.57611847 64.78662109 C-3.58118239 67.01334911 -3.57347572 69.23967189 -3.56231689 71.46636963 C-3.56072571 72.73496826 -3.55913452 74.00356689 -3.55749512 75.31060791 C-3.61340931 78.3905628 -3.61340931 78.3905628 -1.30352783 80.27105713 C1.80006354 80.57916628 1.80006354 80.57916628 5.50115967 80.52984619 C6.20049622 80.53335083 6.89983276 80.53685547 7.62036133 80.54046631 C9.93749855 80.54928588 12.25433171 80.54343382 14.57147217 80.53668213 C16.17808084 80.53802872 17.78468911 80.5399692 19.39129639 80.54248047 C22.76063919 80.54543203 26.12987604 80.5411331 29.49920654 80.53179932 C33.82386711 80.52040471 38.14827945 80.52696402 42.47293091 80.53894424 C45.79113647 80.54616201 49.10928292 80.54387532 52.42749023 80.53868866 C54.02233916 80.53735193 55.61719341 80.53900071 57.21203613 80.54364777 C59.43876415 80.54871169 61.66508693 80.54100501 63.89178467 80.52984619 C65.1603833 80.528255 66.42898193 80.52666382 67.73602295 80.52502441 C70.81597784 80.58093861 70.81597784 80.58093861 72.69647217 78.27105713 C73.00458132 75.16746576 73.00458132 75.16746576 72.95526123 71.46636963 C72.95876587 70.76703308 72.96227051 70.06769653 72.96588135 69.34716797 C72.97470092 67.03003075 72.96884886 64.71319758 72.96209717 62.39605713 C72.96344376 60.78944846 72.96538424 59.18284018 72.96789551 57.57623291 C72.97084707 54.20689011 72.96654814 50.83765325 72.95721436 47.46832275 C72.94581975 43.14366219 72.95237905 38.81924984 72.96435928 34.49459839 C72.97157704 31.17639283 72.96929035 27.85824638 72.9641037 24.54003906 C72.96276697 22.94519013 72.96441574 21.35033588 72.96906281 19.75549316 C72.97412673 17.52876515 72.96642005 15.30244237 72.95526123 13.07574463 C72.95367004 11.807146 72.95207886 10.53854736 72.95043945 9.23150635 C73.00635365 6.15155146 73.00635365 6.15155146 70.69647217 4.27105713 C67.5928808 3.96294798 67.5928808 3.96294798 63.89178467 4.01226807 C63.19244812 4.00876343 62.49311157 4.00525879 61.77258301 4.00164795 C59.45544579 3.99282837 57.13861262 3.99868043 54.82147217 4.00543213 C53.2148635 4.00408554 51.60825522 4.00214506 50.00164795 3.99963379 C46.63230515 3.99668223 43.26306829 4.00098116 39.89373779 4.01031494 C35.56907723 4.02170955 31.24466488 4.01515024 26.92001343 4.00317001 C23.60180787 3.99595225 20.28366142 3.99823894 16.9654541 4.0034256 C15.37060517 4.00476233 13.77575092 4.00311355 12.1809082 3.99846649 C9.95418018 3.99340257 7.72785741 4.00110925 5.50115967 4.01226807 C4.23256104 4.01385925 2.9639624 4.01545044 1.65692139 4.01708984 C-1.4230335 3.96117565 -1.4230335 3.96117565 -3.30352783 6.27105713 Z " fill="#000000" transform="translate(15.30352783203125,7.72894287109375)"/>
<path d="M0 0 C2.43841382 1.43996865 3.34723421 2.63890601 5 5 C4 8 4 8 1 10 C-0.8125 9.6875 -0.8125 9.6875 -3 9 C-4.99788438 8.65421232 -6.99759451 8.31856451 -9 8 C-8.95015081 9.92206313 -8.95015081 9.92206313 -8 12 C-5.33802558 13.66163713 -5.33802558 13.66163713 -2.125 15 C4.9046158 18.11674532 4.9046158 18.11674532 7 22 C7.87667144 26.85723364 7.71427993 30.83334278 5.125 35.0625 C0.89167087 38.92230009 -3.24951091 38.33020344 -8.78125 38.28125 C-13.18426277 37.89652073 -14.93307372 37.15211868 -18 34 C-18.875 31.25 -18.875 31.25 -19 29 C-17.25 27.4375 -17.25 27.4375 -15 26 C-12.27106412 26.17055849 -11.12693581 26.89686465 -9 28.625 C-7.08868223 30.2701354 -7.08868223 30.2701354 -4.75 29.6875 C-3.88375 29.3471875 -3.88375 29.3471875 -3 29 C-2.67 27.68 -2.34 26.36 -2 25 C-2.86625 24.7525 -3.7325 24.505 -4.625 24.25 C-9.39079553 22.48489054 -13.70726871 19.92702514 -17 16 C-18.24911997 11.77829074 -18.47871532 8.124981 -16.75 4.0625 C-12.21063812 -1.28746222 -6.53638676 -0.9073421 0 0 Z " fill="#000000" transform="translate(77,46)"/>
<path d="M0 0 C2.64 0 5.28 0 8 0 C8.09917794 4.46567763 8.17161225 8.93076507 8.21972656 13.3972168 C8.23979203 14.9152341 8.26705134 16.43317459 8.30175781 17.95092773 C8.35050393 20.13805122 8.37301805 22.32414952 8.390625 24.51171875 C8.41157227 25.82615967 8.43251953 27.14060059 8.45410156 28.49487305 C7.92906843 32.54750786 6.86169466 34.14662035 4 37 C0.07979559 38.96010221 -4.71611576 38.3528633 -9 38 C-12.74030185 36.39701349 -13.73158465 35.40262302 -16 32 C-16 29.9375 -16 29.9375 -15 28 C-11.9375 26.75 -11.9375 26.75 -9 26 C-8.34 26.66 -7.68 27.32 -7 28 C-5.02 28.33 -3.04 28.66 -1 29 C-0.67 19.43 -0.34 9.86 0 0 Z " fill="#000000" transform="translate(46,46)"/>
</svg>
