<svg width="100px" height="100px" viewBox="0 0 100 100" role="img" xmlns="http://www.w3.org/2000/svg"><path d="M98.508 22.625a1.636 1.636 0 0 1 0.058 0.416v21.455c0 0.563 -0.305 1.084 -0.787 1.358L79.766 56.229v20.558a1.582 1.582 0 0 1 -0.784 1.358l-37.608 21.642a1.273 1.273 0 0 1 -0.275 0.113l-0.1 0.042a1.455 1.455 0 0 1 -0.8 0q-0.066 -0.021 -0.125 -0.05 -0.129 -0.042 -0.258 -0.105L2.221 78.145a1.582 1.582 0 0 1 -0.787 -1.358V12.392q0 -0.208 0.058 -0.408c0.013 -0.05 0.042 -0.084 0.058 -0.134a1.818 1.818 0 0 1 0.095 -0.242c0.016 -0.055 0.063 -0.092 0.095 -0.137l0.137 -0.187q0.075 -0.058 0.155 -0.113 0.084 -0.075 0.171 -0.142h0.005L21.013 0.208a1.582 1.582 0 0 1 1.563 0l18.8 10.821h0.008q0.087 0.063 0.166 0.137l0.158 0.113c0.055 0.058 0.084 0.125 0.137 0.187 0.034 0.045 0.084 0.087 0.105 0.137q0.058 0.121 0.1 0.242c0.013 0.045 0.042 0.087 0.055 0.134q0.058 0.195 0.058 0.408v40.216l15.666 -9.016V23.029q0 -0.208 0.055 -0.408 0.029 -0.058 0.055 -0.134a4.545 4.545 0 0 1 0.1 -0.245c0.029 -0.05 0.075 -0.084 0.105 -0.137q0.071 -0.095 0.137 -0.179 0.079 -0.071 0.155 -0.116 0.084 -0.071 0.171 -0.134h0.005l18.805 -10.825a1.582 1.582 0 0 1 1.563 0l18.805 10.825c0.066 0.042 0.113 0.087 0.175 0.129q0.079 0.058 0.15 0.116 0.075 0.092 0.142 0.184c0.034 0.05 0.079 0.087 0.1 0.137a1.273 1.273 0 0 1 0.1 0.25q0.042 0.063 0.063 0.134m-3.084 20.966V25.745l-6.575 3.784 -9.092 5.234v17.845zM76.634 75.884V58.021l-8.946 5.105L42.163 77.7v18.021zM4.555 15.1v60.784l34.471 19.837V77.7l-18.009 -10.187 -0.008 -0.013H21q-0.084 -0.066 -0.166 -0.129l-0.145 -0.113 -0.005 -0.008q-0.075 -0.075 -0.129 -0.166 -0.066 -0.066 -0.116 -0.15h-0.008q-0.042 -0.092 -0.084 -0.195c-0.025 -0.066 -0.058 -0.113 -0.075 -0.179l-0.034 -0.237q-0.021 -0.084 -0.025 -0.171V24.121l-9.084 -5.237zM21.792 3.375 6.125 12.392l15.666 9.016 15.658 -9.016zm8.15 56.271 9.092 -5.234V15.1l-6.584 3.792 -9.092 5.229v39.313zm48.255 -45.625 -15.666 9.013 15.666 9.013 15.663 -9.016zm-1.566 20.742 -9.087 -5.234 -6.584 -3.779v17.845l9.092 5.234 6.584 3.784zM40.588 74.987 63.564 61.871l11.484 -6.55 -15.655 -9.013 -18.013 10.371 -16.421 9.458z"/></svg>