<?xml version="1.0" encoding="UTF-8"?>
<svg version="1.1" xmlns="http://www.w3.org/2000/svg" width="100" height="100">
<path d="M0 0 C6.92312049 -0.72874953 12.91054916 2.17441541 18.75 5.625 C22.9041325 10.00991764 25.57533688 15.4341146 28.4921875 20.6875 C30.47061793 23.72177672 32.97979215 25.0494491 36 27 C37.875 29.25 37.875 29.25 39 31 C37.02 31.99 37.02 31.99 35 33 C35.825 33.61875 36.65 34.2375 37.5 34.875 C38.325 35.57625 39.15 36.2775 40 37 C40 37.66 40 38.32 40 39 C35.40693504 37.5140084 32.56430755 35.14985318 29 32 C30 30 30 30 33 29 C31.96875 28.5875 30.9375 28.175 29.875 27.75 C23.6332053 24.26119199 21.16071444 16.48214331 19 10 C17.30230766 8.89831016 17.30230766 8.89831016 15 8 C13.865625 7.505 12.73125 7.01 11.5625 6.5 C8.71878296 5.30264546 5.86658631 4.14073417 3 3 C3.433125 3.70125 3.86625 4.4025 4.3125 5.125 C7.81596434 11.09386517 9.78554521 15.06101729 9 22 C9.99 21.34 10.98 20.68 12 20 C13.00533667 21.62170379 14.00411907 23.24747237 15 24.875 C15.556875 25.77992187 16.11375 26.68484375 16.6875 27.6171875 C18 30 18 30 18 32 C19.32 32.33 20.64 32.66 22 33 C21.97679688 34.20398437 21.95359375 35.40796875 21.9296875 36.6484375 C21.91093137 38.22395215 21.89273101 39.79947348 21.875 41.375 C21.85824219 42.1690625 21.84148437 42.963125 21.82421875 43.78125 C21.80664527 45.85492015 21.89664832 47.92883241 22 50 C22.66 50.66 23.32 51.32 24 52 C21.66705225 52.04241723 19.33297433 52.04092937 17 52 C16.505 51.505 16.505 51.505 16 51 C13.19072041 50.75649904 10.38265838 50.61608999 7.56640625 50.4765625 C6.29603516 50.24066406 6.29603516 50.24066406 5 50 C2.69178337 46.53767506 2.72999011 45.08201684 2.75 41 C2.74484375 39.948125 2.7396875 38.89625 2.734375 37.8125 C3 35 3 35 5 32 C7.6015625 31.48828125 7.6015625 31.48828125 10.625 31.3125 C12.12933594 31.21388672 12.12933594 31.21388672 13.6640625 31.11328125 C14.43492188 31.07589844 15.20578125 31.03851563 16 31 C14.63555201 29.4271174 14.63555201 29.4271174 13 28 C12.01 28.2475 12.01 28.2475 11 28.5 C9 29 9 29 7.3125 28 C4.87823653 24.29064614 5.07376161 19.82613006 4.6875 15.5 C4.07646124 12.3892572 3.53228524 10.96933374 1.9375 8.375 C0.04754211 5.08281528 -0.44599027 3.67941974 0 0 Z M8 36 C7.63583953 38.43693311 7.63583953 38.43693311 7.8125 41.125 C7.83957031 42.03507812 7.86664063 42.94515625 7.89453125 43.8828125 C7.92933594 44.58148438 7.96414062 45.28015625 8 46 C10.475 46.99 10.475 46.99 13 48 C13 47.67 13 47.34 13 47 C14.65 46.67 16.3 46.34 18 46 C17.67 42.37 17.34 38.74 17 35 C12.25923451 33.81301999 12.25923451 33.81301999 8 36 Z " fill="#000000" transform="translate(60,16)"/>
<path d="M0 0 C2.31 0 4.62 0 7 0 C7.83819158 1.62249941 8.6704116 3.24808497 9.5 4.875 C9.9640625 5.77992187 10.428125 6.68484375 10.90625 7.6171875 C12 10 12 10 12 12 C12.66 12 13.32 12 14 12 C14.19335938 11.38511719 14.38671875 10.77023438 14.5859375 10.13671875 C14.84632812 9.32847656 15.10671875 8.52023438 15.375 7.6875 C15.63023438 6.88699219 15.88546875 6.08648437 16.1484375 5.26171875 C17 3 17 3 19 0 C21.31 0 23.62 0 26 0 C26 5.94 26 11.88 26 18 C24.68 18 23.36 18 22 18 C21.505 13.05 21.505 13.05 21 8 C19.35 11.3 17.7 14.6 16 18 C14.02 18 12.04 18 10 18 C8.35 14.7 6.7 11.4 5 8 C4.67 11.3 4.34 14.6 4 18 C2.68 18 1.36 18 0 18 C0 12.06 0 6.12 0 0 Z " fill="#000000" transform="translate(0,48)"/>
<path d="M0 0 C1.32 0 2.64 0 4 0 C4.33 2.64 4.66 5.28 5 8 C7.31 8.66 9.62 9.32 12 10 C12 6.7 12 3.4 12 0 C13.32 0 14.64 0 16 0 C16.02685095 2.47923801 16.04676547 4.9581884 16.0625 7.4375 C16.07087891 8.14455078 16.07925781 8.85160156 16.08789062 9.58007812 C16.09653588 11.38693559 16.05220011 13.19387603 16 15 C15 16 15 16 11.62109375 16.09765625 C10.22652923 16.09098369 8.83198257 16.07902532 7.4375 16.0625 C6.72658203 16.05798828 6.01566406 16.05347656 5.28320312 16.04882812 C3.52209987 16.03700864 1.76103964 16.01907263 0 16 C0 15.34 0 14.68 0 14 C3.3 13.67 6.6 13.34 10 13 C8.535625 12.855625 7.07125 12.71125 5.5625 12.5625 C1.125 12.125 1.125 12.125 0 11 C-0.07226502 9.14712498 -0.0838122 7.29166122 -0.0625 5.4375 C-0.05347656 4.42558594 -0.04445313 3.41367187 -0.03515625 2.37109375 C-0.02355469 1.58863281 -0.01195313 0.80617187 0 0 Z " fill="#000000" transform="translate(28,54)"/>
<path d="M0 0 C1.39456452 0.00667256 2.78911118 0.01863093 4.18359375 0.03515625 C4.89451172 0.03966797 5.60542969 0.04417969 6.33789062 0.04882812 C8.09899388 0.06064761 9.86005411 0.07858362 11.62109375 0.09765625 C11.62109375 0.75765625 11.62109375 1.41765625 11.62109375 2.09765625 C8.32109375 2.42765625 5.02109375 2.75765625 1.62109375 3.09765625 C1.62109375 4.41765625 1.62109375 5.73765625 1.62109375 7.09765625 C2.25917969 7.15824219 2.89726563 7.21882813 3.5546875 7.28125 C4.38097656 7.36503906 5.20726562 7.44882812 6.05859375 7.53515625 C7.29416016 7.65697266 7.29416016 7.65697266 8.5546875 7.78125 C10.62109375 8.09765625 10.62109375 8.09765625 11.62109375 9.09765625 C11.76224536 11.76824476 11.66356482 14.42197863 11.62109375 17.09765625 C8.61795627 18.59922499 5.83041853 18.19046829 2.49609375 18.16015625 C1.21476562 18.15113281 -0.0665625 18.14210938 -1.38671875 18.1328125 C-2.86785156 18.11541016 -2.86785156 18.11541016 -4.37890625 18.09765625 C-4.37890625 17.43765625 -4.37890625 16.77765625 -4.37890625 16.09765625 C-1.07890625 15.76765625 2.22109375 15.43765625 5.62109375 15.09765625 C5.62109375 13.77765625 5.62109375 12.45765625 5.62109375 11.09765625 C4.98300781 11.03707031 4.34492187 10.97648437 3.6875 10.9140625 C2.86121094 10.83027344 2.03492188 10.74648438 1.18359375 10.66015625 C0.35988281 10.57894531 -0.46382812 10.49773438 -1.3125 10.4140625 C-3.37890625 10.09765625 -3.37890625 10.09765625 -4.37890625 9.09765625 C-4.51171875 7.28515625 -4.51171875 7.28515625 -4.50390625 5.09765625 C-4.50648437 4.37578125 -4.5090625 3.65390625 -4.51171875 2.91015625 C-4.26941717 -0.39654764 -3.40555941 0.09842657 0 0 Z " fill="#000000" transform="translate(50.37890625,47.90234375)"/>
<path d="M0 0 C1.32 0 2.64 0 4 0 C4.04898438 0.99902344 4.09796875 1.99804688 4.1484375 3.02734375 C4.22320312 4.31769531 4.29796875 5.60804687 4.375 6.9375 C4.44460937 8.22527344 4.51421875 9.51304688 4.5859375 10.83984375 C4.72257812 11.88269531 4.85921875 12.92554688 5 14 C7.29629994 15.14814997 9.07698086 15.30769809 11.625 15.5625 C12.44226563 15.64628906 13.25953125 15.73007812 14.1015625 15.81640625 C14.72804688 15.87699219 15.35453125 15.93757813 16 16 C16 16.66 16 17.32 16 18 C13.52076199 18.02685095 11.0418116 18.04676547 8.5625 18.0625 C7.85544922 18.07087891 7.14839844 18.07925781 6.41992188 18.08789062 C4.61306441 18.09653588 2.80612397 18.05220011 1 18 C0 17 0 17 -0.09765625 13.18359375 C-0.09098089 11.60153318 -0.07901875 10.01948841 -0.0625 8.4375 C-0.05798828 7.63119141 -0.05347656 6.82488281 -0.04882812 5.99414062 C-0.03700518 3.99606244 -0.01906914 1.99802217 0 0 Z " fill="#000000" transform="translate(84,48)"/>
<path d="M0 0 C0.99 0 1.98 0 3 0 C2.67 1.32 2.34 2.64 2 4 C1.34 2.68 0.68 1.36 0 0 Z " fill="#000000" transform="translate(67,22)"/>
</svg>
