<?xml version="1.0" encoding="UTF-8"?>
<svg version="1.1" xmlns="http://www.w3.org/2000/svg" width="100" height="100">
<path d="M0 0 C1.23032959 0.00757324 2.46065918 0.01514648 3.72827148 0.02294922 C17.53847039 0.27306453 31.96543191 2.59581229 42.3828125 12.53125 C47.55329168 18.30878949 48.55387145 21.67307245 48.4609375 29.4609375 C47.9565884 34.95113767 44.93056305 37.86824873 41.125 41.5 C26.00568796 53.76237198 5.62363482 53.71475542 -12.8125 52.4375 C-25.56066976 50.90277359 -37.36169563 46.30500013 -45.5703125 36.171875 C-48.94622702 31.45833398 -48.32589447 26.02616554 -47.8125 20.4375 C-44.11678061 12.45474612 -36.87612041 8.15641896 -29.14453125 4.61328125 C-19.39369572 1.17248231 -10.32668872 -0.08917571 0 0 Z M-39.8125 17.4375 C-42.73457416 20.90746306 -43.37098994 23.89470627 -43.1484375 28.45703125 C-42.26403466 33.67089448 -38.89286435 36.60034802 -34.8125 39.5625 C-18.97835896 49.38172383 1.67032532 50.14833512 19.4375 46.1875 C27.94467309 43.85910149 36.36441384 40.18340006 42 33.1875 C43.57696862 29.53557267 43.84506875 26.31409718 43.1875 22.4375 C39.68169465 14.81618402 32.26345254 10.99726262 24.6875 8.1875 C4.87811912 2.04505632 -24.06773709 1.98201095 -39.8125 17.4375 Z " fill="#000000" transform="translate(49.8125,23.5625)"/>
<path d="M0 0 C2.578125 -0.061875 5.15625 -0.12375 7.8125 -0.1875 C9.02450073 -0.22846802 9.02450073 -0.22846802 10.26098633 -0.27026367 C15.48333678 -0.33119437 15.48333678 -0.33119437 17.98046875 1.26953125 C19.8093391 4.37370582 19.67823774 7.58221372 19 11 C17.125 14 17.125 14 14 16 C10.62281543 16.39701254 7.38234984 16.29554513 4 16 C3.67 17.98 3.34 19.96 3 22 C0.69 22 -1.62 22 -4 22 C-2.68 14.74 -1.36 7.48 0 0 Z M6 4 C5.67 6.64 5.34 9.28 5 12 C9.47883696 11.55296014 9.47883696 11.55296014 13 9 C13 7.68 13 6.36 13 5 C10.69 4.67 8.38 4.34 6 4 Z " fill="#000000" transform="translate(63,40)"/>
<path d="M0 0 C2.578125 -0.061875 5.15625 -0.12375 7.8125 -0.1875 C9.02450073 -0.22846802 9.02450073 -0.22846802 10.26098633 -0.27026367 C15.48333678 -0.33119437 15.48333678 -0.33119437 17.98046875 1.26953125 C19.8093391 4.37370582 19.67823774 7.58221372 19 11 C17.125 14 17.125 14 14 16 C10.62281543 16.39701254 7.38234984 16.29554513 4 16 C3.67 17.98 3.34 19.96 3 22 C0.69 22 -1.62 22 -4 22 C-2.68 14.74 -1.36 7.48 0 0 Z M6 4 C5.67 6.64 5.34 9.28 5 12 C9.47883696 11.55296014 9.47883696 11.55296014 13 9 C13 7.68 13 6.36 13 5 C10.69 4.67 8.38 4.34 6 4 Z " fill="#000000" transform="translate(21,40)"/>
<path d="M0 0 C2.31 0 4.62 0 7 0 C6.34 2.64 5.68 5.28 5 8 C5.69867188 7.97679687 6.39734375 7.95359375 7.1171875 7.9296875 C8.02726562 7.91164063 8.93734375 7.89359375 9.875 7.875 C11.23238281 7.84019531 11.23238281 7.84019531 12.6171875 7.8046875 C15 8 15 8 17 10 C17.40435072 15.15547167 16.57849109 19.16587103 15 24 C12.69 24 10.38 24 8 24 C8.66 20.37 9.32 16.74 10 13 C7.03 12.505 7.03 12.505 4 12 C3.93941406 12.61488281 3.87882812 13.22976562 3.81640625 13.86328125 C3.73261719 14.67152344 3.64882813 15.47976562 3.5625 16.3125 C3.48128906 17.11300781 3.40007813 17.91351563 3.31640625 18.73828125 C3 21 3 21 2 24 C0.02 24 -1.96 24 -4 24 C-3.4533512 15.81911794 -1.82876132 7.98214061 0 0 Z " fill="#000000" transform="translate(44,32)"/>
</svg>
