<?xml version="1.0" encoding="UTF-8"?>
<svg version="1.1" xmlns="http://www.w3.org/2000/svg" width="100" height="100">
<path d="M0 0 C1.28455078 -0.02835937 2.56910156 -0.05671875 3.89257812 -0.0859375 C12.97141985 -0.10464712 18.07024249 1.24642031 24.62109375 7.44921875 C25.07613281 8.02285156 25.53117187 8.59648437 26 9.1875 C26.47308594 9.76886719 26.94617188 10.35023437 27.43359375 10.94921875 C30.51724769 15.18524164 30.09394234 19.44824347 29.5625 24.5 C27.33567212 35.61138767 22.99908291 45.6138795 17.5625 55.5 C18.5525 55.17 19.5425 54.84 20.5625 54.5 C24.1875 54.375 24.1875 54.375 27.5625 54.5 C28.5625 55.5 28.5625 55.5 28.9375 57.8125 C28.5625 60.5 28.5625 60.5 26.25 62.75 C22.64091139 65.10010421 20.08811599 65.62355965 15.875 65.5625 C15.06675781 65.55347656 14.25851563 65.54445313 13.42578125 65.53515625 C12.81089844 65.52355469 12.19601563 65.51195313 11.5625 65.5 C11.58570312 66.10585937 11.60890625 66.71171875 11.6328125 67.3359375 C11.79205702 74.72943295 11.69701275 82.08477959 7.6875 88.5 C3.43318934 92.5040571 -0.32139133 92.99605002 -6.0234375 92.88671875 C-8.4375 92.5 -8.4375 92.5 -11.5 90.25 C-14.65575224 85.77086779 -14.64874698 81.66933235 -15 76.25 C-15.08378906 74.98671875 -15.16757812 73.7234375 -15.25390625 72.421875 C-15.31449219 71.45765625 -15.37507813 70.4934375 -15.4375 69.5 C-16.4275 69.83 -17.4175 70.16 -18.4375 70.5 C-24.72911119 70.96604527 -24.72911119 70.96604527 -27.8125 68.9375 C-30.90066638 67.24636127 -31.5564665 67.56856491 -34.875 68.25 C-38.8801943 68.80038266 -38.8801943 68.80038266 -41.140625 67.58203125 C-52.11822786 56.34443253 -54.96752564 34.64569385 -54.93188477 19.78344727 C-54.73576412 14.01323965 -53.79434801 9.59496097 -49.4375 5.5 C-44.53089596 1.79012865 -40.10268867 1.34769923 -34.0625 1.3125 C-32.96164063 1.29832031 -31.86078125 1.28414063 -30.7265625 1.26953125 C-27.4375 1.5 -27.4375 1.5 -24.4609375 2.69921875 C-20.88653586 3.6459272 -19.87050605 2.85425534 -16.68701172 1.2734375 C-11.40622522 -0.54222688 -5.519892 -0.01104531 0 0 Z M-20.4375 9.5 C-24.07455125 13.68974042 -26.01907906 17.92105409 -26.4375 23.5 C-25.220625 23.396875 -24.00375 23.29375 -22.75 23.1875 C-19.42908403 23.22282889 -18.45746357 23.48768205 -15.5 25.3125 C-11.59766026 31.3433887 -11.96566403 37.9968835 -13.3125 44.875 C-13.67906291 46.41869451 -14.05392474 47.9604445 -14.4375 49.5 C-14.77800635 51.165216 -15.11324176 52.83154398 -15.4375 54.5 C-14.798125 54.768125 -14.15875 55.03625 -13.5 55.3125 C-11.4375 56.5 -11.4375 56.5 -10.4375 59.5 C-10.32357564 61.21380326 -10.25948817 62.9311675 -10.2265625 64.6484375 C-10.19820312 65.65390625 -10.16984375 66.659375 -10.140625 67.6953125 C-10.08873788 69.80711828 -10.04440874 71.91912391 -10.0078125 74.03125 C-9.9510639 81.32571105 -9.9510639 81.32571105 -6.4375 87.5 C-2.71254419 88.2287957 -0.98295253 87.80991621 2.3125 85.9375 C7.02230082 80.83521578 7.02842011 73.51519352 7.625 66.875 C7.7803763 65.21594063 7.93786687 63.55707765 8.09765625 61.8984375 C8.2044873 60.73852295 8.2044873 60.73852295 8.31347656 59.55517578 C8.5625 57.5 8.5625 57.5 9.30078125 54.828125 C9.69892014 51.2864716 8.25675406 49.0207397 6.6875 45.875 C3.4256504 39.24510104 1.4276641 33.96469835 2.5625 26.5 C4.8125 24.5 4.8125 24.5 7.5625 23.5 C8.90156335 22.84491865 10.23603844 22.1802367 11.5625 21.5 C6.17354128 13.79875757 1.02019938 7.85485228 -8.4375 5.5 C-13.38532149 5.5 -16.42140151 6.64729512 -20.4375 9.5 Z M4.5625 5.5 C5.26375 6.139375 5.965 6.77875 6.6875 7.4375 C11.04036672 11.77792996 16.37660945 18.07857945 16.64428711 24.4453125 C16.6263208 25.16460938 16.60835449 25.88390625 16.58984375 26.625 C16.57759766 27.41390625 16.56535156 28.2028125 16.55273438 29.015625 C16.51757627 30.67196248 16.47851312 32.32822167 16.43554688 33.984375 C16.42458984 34.77328125 16.41363281 35.5621875 16.40234375 36.375 C16.37708618 37.45394531 16.37708618 37.45394531 16.35131836 38.5546875 C16.4464541 40.82606396 16.4464541 40.82606396 18.5625 43.5 C19.37686587 41.08394775 20.18905397 38.66720002 21 36.25 C21.23009766 35.56808594 21.46019531 34.88617188 21.69726562 34.18359375 C23.9631515 27.41877504 25.3674906 21.67491622 24.5625 14.5 C22.02834602 9.64287153 17.66435482 7.17920761 12.5625 5.5 C9.79278861 5.20324521 7.3589356 5.3002546 4.5625 5.5 Z M-46.4375 9.5 C-51.72414572 18.28142355 -50.18133606 28.29429562 -47.84545898 37.83300781 C-44.38739333 51.85801538 -44.38739333 51.85801538 -36.4375 63.5 C-32.4775 59.045 -32.4775 59.045 -28.4375 54.5 C-28.92476562 53.39011719 -29.41203125 52.28023437 -29.9140625 51.13671875 C-31.7700191 46.16454761 -31.89412159 41.57469214 -31.8125 36.3125 C-31.80524902 35.39210938 -31.79799805 34.47171875 -31.79052734 33.5234375 C-31.60466865 24.30484612 -29.99793479 16.04504349 -26.4375 7.5 C-32.92401922 5.33782693 -40.83903238 5.30114929 -46.4375 9.5 Z M8.5625 27.5 C9.5525 27.83 10.5425 28.16 11.5625 28.5 C11.2325 29.16 10.9025 29.82 10.5625 30.5 C8.5 31.125 8.5 31.125 6.5625 31.5 C7.0436491 37.27378925 8.74717181 41.45859836 11.5625 46.5 C11.8925 46.5 12.2225 46.5 12.5625 46.5 C12.5625 40.23 12.5625 33.96 12.5625 27.5 C11.2425 27.5 9.9225 27.5 8.5625 27.5 Z M-24.0625 28.125 C-26.64334723 29.25231192 -26.64334723 29.25231192 -27.0703125 31.7109375 C-27.45889166 34.66248558 -27.64193318 37.5229677 -27.6875 40.5 C-27.71328125 41.510625 -27.7390625 42.52125 -27.765625 43.5625 C-27.37943395 47.01982939 -26.60492484 48.78600716 -24.4375 51.5 C-21.86650598 52.84689915 -21.86650598 52.84689915 -19.4375 53.5 C-17.42884292 46.99577707 -16.05135651 41.3218683 -16.4375 34.5 C-17.241875 34.231875 -18.04625 33.96375 -18.875 33.6875 C-19.720625 33.295625 -20.56625 32.90375 -21.4375 32.5 C-21.7675 31.51 -22.0975 30.52 -22.4375 29.5 C-21.1175 29.17 -19.7975 28.84 -18.4375 28.5 C-21.35143731 27.2357082 -21.35143731 27.2357082 -24.0625 28.125 Z M-24.4375 57.5 C-26.14282323 59.44009522 -26.14282323 59.44009522 -27.4375 61.5 C-25.4575 60.84 -23.4775 60.18 -21.4375 59.5 C-21.4375 58.84 -21.4375 58.18 -21.4375 57.5 C-22.4275 57.5 -23.4175 57.5 -24.4375 57.5 Z M13.5625 58.5 C13.2325 59.16 12.9025 59.82 12.5625 60.5 C14.2125 60.5 15.8625 60.5 17.5625 60.5 C16.2425 59.84 14.9225 59.18 13.5625 58.5 Z M-16.4375 60.5 C-18.07426257 62.4600281 -18.07426257 62.4600281 -19.4375 64.5 C-16.31552522 63.1910428 -16.31552522 63.1910428 -14.4375 60.5 C-15.0975 60.5 -15.7575 60.5 -16.4375 60.5 Z " fill="#000000" transform="translate(62.4375,3.5)"/>
</svg>
