<?xml version="1.0" encoding="UTF-8"?>
<svg version="1.1" xmlns="http://www.w3.org/2000/svg" width="96" height="96">
<path d="M0 0 C4.53393726 2.68509208 8.71439404 5.8287031 12.77539062 9.18481445 C16.05448429 11.79444136 17.67124913 12.79219453 21.96484375 13.29296875 C25.20571453 13.20169706 25.20571453 13.20169706 26.67578125 10.84375 C27.15015625 10.18375 27.62453125 9.52375 28.11328125 8.84375 C31.23828125 8.53125 31.23828125 8.53125 34.11328125 8.84375 C35.11328125 9.84375 35.11328125 9.84375 35.55078125 12.84375 C35.45276389 18.14757801 32.47108304 21.94869992 29.11328125 25.84375 C22.48200219 31.82563827 17.3752908 33.27834081 8.45703125 33.1796875 C1.17009162 32.44758842 -3.69615227 27.9906157 -9.38671875 23.71875 C-18.45659419 17.0883583 -25.68015293 16.52187883 -36.60546875 16.8359375 C-38.2296875 16.83980469 -38.2296875 16.83980469 -39.88671875 16.84375 C-40.88671875 15.84375 -40.88671875 15.84375 -41.44921875 13.28125 C-40.43745707 7.09826194 -35.55422622 3.99747685 -30.87890625 0.22265625 C-21.6745581 -5.95440629 -9.63558928 -4.48530814 0 0 Z " fill="#000000" transform="translate(40.88671875,47.15625)"/>
<path d="M0 0 C4.53393726 2.68509208 8.71439404 5.8287031 12.77539062 9.18481445 C16.05448429 11.79444136 17.67124913 12.79219453 21.96484375 13.29296875 C25.20571453 13.20169706 25.20571453 13.20169706 26.67578125 10.84375 C27.15015625 10.18375 27.62453125 9.52375 28.11328125 8.84375 C31.23828125 8.53125 31.23828125 8.53125 34.11328125 8.84375 C35.11328125 9.84375 35.11328125 9.84375 35.55078125 12.84375 C35.45276389 18.14757801 32.47108304 21.94869992 29.11328125 25.84375 C22.48200219 31.82563827 17.3752908 33.27834081 8.45703125 33.1796875 C1.17009162 32.44758842 -3.69615227 27.9906157 -9.38671875 23.71875 C-18.45659419 17.0883583 -25.68015293 16.52187883 -36.60546875 16.8359375 C-38.2296875 16.83980469 -38.2296875 16.83980469 -39.88671875 16.84375 C-40.88671875 15.84375 -40.88671875 15.84375 -41.44921875 13.28125 C-40.43745707 7.09826194 -35.55422622 3.99747685 -30.87890625 0.22265625 C-21.6745581 -5.95440629 -9.63558928 -4.48530814 0 0 Z " fill="#000000" transform="translate(60.88671875,19.15625)"/>
</svg>
